<?xml version="1.0" encoding="iso-8859-1"?>
<!-- Uploaded to: SVG Repo, www.svgrepo.com, Generator: SVG Repo Mixer Tools -->
<svg height="800px" width="800px" version="1.1" id="Layer_1" xmlns="http://www.w3.org/2000/svg" xmlns:xlink="http://www.w3.org/1999/xlink" 
	 viewBox="0 0 512 512" xml:space="preserve">
<polygon points="512,414.048 0,414.048 0,430.984 25.6,454.624 486.4,454.624 512,430.984 "/>
<path style="fill:#FFFFFF;" d="M48,414.048v-277.6c0-6.64,5.4-12.072,12-12.072h392c6.6,0,12,5.432,12,12.072v277.6"/>
<path d="M472,414.048h-16V136.456c0-2.2-1.832-4.08-4-4.08H60c-2.168,0-4,1.872-4,4.08v277.592H40V136.456
	c0-11.08,8.968-20.08,20-20.08h392c11.032,0,20,9,20,20.08V414.048z"/>
<polygon style="fill:#13B7E6;" points="303.024,430.88 208.976,430.88 192.976,414.056 319.024,414.056 "/>
<path d="M295.24,57.376c0,40.528-39.24,42.968-39.24,42.968s-39.24-2.448-39.24-42.968h-49.8l-70.256,36.16l27.664,77.904
	l40.072-17.464v201.4H256h91.552v-201.4l40.072,17.464l27.664-78.08L345.04,57.376H295.24z"/>
<path style="fill:#FF583E;" d="M299.6,297.688l-43.504-33.608l-43.504,33.608l16.608-54.352l-43.112-33.224h53.2L256,155.376
	l16.712,54.736h53.2l-43.016,33.224L299.6,297.688z"/>
</svg>